<mxfile host="app.diagrams.net" modified="2024-05-06T12:29:56.379Z" agent="Mozilla/5.0 (Windows NT 10.0; Win64; x64) AppleWebKit/537.36 (KHTML, like Gecko) Chrome/124.0.0.0 Safari/537.36" version="24.2.1" etag="3D87IayMJIe8kie_WJXn" type="github">
  <diagram name="Page-1" id="jM1wrBKixc7qxw9a_f36">
    <mxGraphModel>
      <root>
        <mxCell id="0" />
        <mxCell id="1" parent="0" />
      </root>
    </mxGraphModel>
  </diagram>
</mxfile>
